<?xml version="1.0" encoding="UTF-8"?>
<!DOCTYPE svg PUBLIC "-//W3C//DTD SVG 1.1//EN" "http://www.w3.org/Graphics/SVG/1.1/DTD/svg11.dtd">
<!-- Creator: CorelDRAW -->
<svg xmlns="http://www.w3.org/2000/svg" xml:space="preserve" width="2048px" height="2048px" style="shape-rendering:geometricPrecision; text-rendering:geometricPrecision; image-rendering:optimizeQuality; fill-rule:evenodd; clip-rule:evenodd"
viewBox="0 0 2048 2048"
 xmlns:xlink="http://www.w3.org/1999/xlink">
 <defs>
  <style type="text/css">
   <![CDATA[
    .fil0 {fill:none}
    .fil3 {fill:#A0A0A0}
    .fil6 {fill:#ACACAC}
    .fil7 {fill:#FFFFFE}
    .fil5 {fill:#616161;fill-rule:nonzero}
    .fil1 {fill:#A0A0A0;fill-rule:nonzero}
    .fil2 {fill:#BFC0C0;fill-rule:nonzero}
    .fil4 {fill:#FFFFFE;fill-rule:nonzero}
   ]]>
  </style>
 </defs>
 <g id="Layer_x0020_1">
  <metadata id="CorelCorpID_0Corel-Layer"/>
  <g id="_345258832">
   <rect id="_345260440" class="fil0" width="2048" height="2048"/>
   <rect id="_345260320" class="fil0" width="2048" height="2048"/>
   <rect id="_345260200" class="fil0" x="255.999" y="255.999" width="1536" height="1536"/>
   <polygon id="_345260032" class="fil1" points="1317.53,543.956 1536,543.956 1566.28,543.957 1567.88,574.332 1631.88,1790.33 1633.65,1823.95 1600,1823.95 448.001,1823.95 414.356,1823.95 416.125,1790.33 480.124,574.332 481.724,543.957 512,543.956 725.967,543.956 "/>
   <path id="_345259840" class="fil2" d="M1536 543.956l30.2764 0.0011811 1.59921 30.091 49.7056 944.702 -1187.16 0 49.7044 -944.702 1.59921 -30.091 30.2764 -0.0011811c769.224,0 750.675,0 1024,0z"/>
   <path id="_345259696" class="fil3" d="M1280.02 671.947c34.0299,0 66.4394,13.4315 90.4973,37.4906 24.0579,24.0579 37.4894,56.4662 37.4894,90.4961 0,33.9969 -13.4693,66.3556 -37.4882,90.3887 -24.0532,24.0685 -56.4308,37.6347 -90.4985,37.6347 -34.0394,0 -66.456,-13.4339 -90.5209,-37.4988 -24.0638,-24.065 -37.5024,-56.4851 -37.5024,-90.5245 0,-34.0701 13.5602,-66.4512 37.63,-90.5079 24.0355,-24.0236 56.3918,-37.4788 90.3934,-37.4788z"/>
   <path id="_345259576" class="fil3" d="M768.021 671.947c34.0299,0 66.4394,13.4315 90.4973,37.4906 24.0579,24.0579 37.4894,56.4662 37.4894,90.4961 0,33.9969 -13.4693,66.3556 -37.4882,90.3887 -24.0532,24.0685 -56.4308,37.6347 -90.4985,37.6347 -34.0394,0 -66.456,-13.4339 -90.5209,-37.4988 -24.0638,-24.065 -37.5024,-56.4851 -37.5024,-90.5245 0,-34.0701 13.5602,-66.4512 37.63,-90.5079 24.0355,-24.0236 56.3918,-37.4788 90.3934,-37.4788z"/>
   <path id="_345259504" class="fil4" d="M1280.02 703.947c26.5028,0 50.5004,10.7469 67.8697,28.1173 17.3705,17.3705 28.1173,41.3681 28.1173,67.8697 0,26.4154 -10.7492,50.3847 -28.1221,67.7682 -17.4425,17.4532 -41.4437,28.2555 -67.865,28.2555 -26.5169,0 -50.5205,-10.7539 -67.8934,-28.1268 -17.3823,-17.3823 -28.1303,-41.3941 -28.1303,-67.8969 0,-26.4225 10.7941,-50.4284 28.2508,-67.8745 17.3776,-17.3693 41.341,-28.1126 67.7729,-28.1126z"/>
   <path id="_345259432" class="fil4" d="M776.13 704.292c26.4059,2.23819 49.4103,14.974 65.2501,33.75 15.841,18.776 24.5221,43.5957 22.2839,70.0028 -2.23229,26.3209 -14.9669,49.2957 -33.7465,65.1497 -18.8551,15.9177 -43.6831,24.6532 -70.0087,22.4221 -26.4236,-2.24055 -49.4292,-14.9811 -65.276,-33.7607 -15.8504,-18.7902 -24.5327,-43.6229 -22.2933,-70.0323 2.23229,-26.328 15.0154,-49.3359 33.8835,-65.2453 18.7854,-15.8386 43.5697,-24.5197 69.9071,-22.2862z"/>
   <path id="_345259360" class="fil5" d="M806.898 767.134c-8.38701,-9.94371 -20.5784,-16.689 -34.5697,-17.8748 -14.1591,-1.2 -27.3886,3.3874 -37.3335,11.7709 -9.81733,8.27835 -16.4906,20.4697 -17.6882,34.5945 -1.18701,14.0067 3.41457,27.1772 11.8158,37.1339 8.3941,9.94961 20.5949,16.7032 34.6099,17.8902 14.1118,1.19764 27.2481,-3.33544 37.0618,-11.6209 9.94843,-8.39883 16.7032,-20.6669 17.902,-34.8071 1.18583,-13.9961 -3.41221,-27.1465 -11.798,-37.0866z"/>
   <path id="_345259144" class="fil5" d="M1318.9 767.134c-8.38701,-9.94371 -20.5784,-16.689 -34.5697,-17.8748 -14.1591,-1.2 -27.3886,3.3874 -37.3335,11.7709 -9.81733,8.27835 -16.4906,20.4697 -17.6882,34.5945 -1.18701,14.0067 3.41457,27.1772 11.8158,37.1339 8.3941,9.94961 20.5949,16.7032 34.6099,17.8902 14.1118,1.19764 27.2481,-3.33544 37.0618,-11.6209 9.94843,-8.39883 16.7032,-20.6669 17.902,-34.8071 1.18583,-13.9961 -3.41221,-27.1465 -11.798,-37.0866z"/>
   <path id="_345259216" class="fil5" d="M736.125 767.957c0.816142,-247.273 69.9804,-414.603 159.056,-491.946 38.2193,-33.1843 80.4745,-50.6847 123.476,-51.8918 43.2485,-1.21417 86.1497,14.0563 125.366,46.4221 87.9001,72.5516 158.602,235.756 167.854,496.29l-63.7512 2.25118c-8.53229,-240.284 -69.3308,-387.163 -144.602,-449.292 -26.8961,-22.1977 -55.3099,-32.7012 -83.1154,-31.9205 -28.0536,0.787796 -56.6056,13.0595 -83.4768,36.391 -76.7174,66.613 -136.305,216.792 -137.054,443.696l-63.7512 0z"/>
   <polygon id="_345259048" class="fil6" points="1250.25,1127.18 994.247,1383.18 971.658,1405.76 948.996,1383.05 825.99,1259.77 871.241,1214.77 971.585,1315.34 1205,1081.93 "/>
   <polygon id="_345258904" class="fil7" points="1249.39,1108.13 993.393,1364.12 970.804,1386.71 948.142,1364 825.136,1240.72 870.387,1195.72 970.731,1296.29 1204.14,1062.87 "/>
  </g>
 </g>
</svg>
